Coordinates
version=1
nRows=28
nColumns=38
inDegrees=no

Units are S.I. units (second, meters, Newtons, ...)
If the header above contains a line with 'inDegrees', this indicates whether rotational values are in degrees (yes) or radians (no).

endheader
time	pelvis_tilt	pelvis_list	pelvis_rotation	pelvis_tx	pelvis_ty	pelvis_tz	hip_flexion_r	hip_adduction_r	hip_rotation_r	knee_angle_r	ankle_angle_r	subtalar_angle_r	mtp_angle_r	hip_flexion_l	hip_adduction_l	hip_rotation_l	knee_angle_l	ankle_angle_l	subtalar_angle_l	mtp_angle_l	lumbar_extension	lumbar_bending	lumbar_rotation	arm_flex_r	arm_add_r	arm_rot_r	elbow_flex_r	pro_sup_r	wrist_flex_r	wrist_dev_r	arm_flex_l	arm_add_l	arm_rot_l	elbow_flex_l	pro_sup_l	wrist_flex_l	wrist_dev_l
3.99	-1.04473	1.50323	2.58449	0.666985	0.630727	1.01556	-0.176526	-0.0925001	-0.0934634	0.568105	-0.160029	0	0	0.308527	0.0733643	-0.192703	0.322425	-0.426952	0	0	-0.141706	-0.0262706	-0.0461931	1.09689	-0.198258	1.19319	0.963183	1.5708	0	0	0.71372	-0.435447	0.629516	1.20083	1.5708	0	0
4	-1.06205	1.50168	2.60398	0.665022	0.638983	1.0164	-0.170255	-0.096393	-0.0806752	0.593732	-0.176088	0	0	0.299473	0.0777124	-0.201675	0.322364	-0.422911	0	0	-0.137601	-0.0286558	-0.0475615	1.0901	-0.201167	1.19109	0.962594	1.5708	0	0	0.71234	-0.432034	0.635443	1.19587	1.5708	0	0
4.01	-1.0848	1.50012	2.62978	0.663075	0.647117	1.01727	-0.162822	-0.100069	-0.0681428	0.621602	-0.194186	0	0	0.28924	0.0825416	-0.208133	0.320957	-0.418511	0	0	-0.134029	-0.0316199	-0.0493108	1.08287	-0.203808	1.18717	0.961176	1.5708	0	0	0.71246	-0.428458	0.643183	1.19002	1.5708	0	0
4.02	-1.11038	1.49851	2.6593	0.661151	0.655113	1.01815	-0.154262	-0.103536	-0.0561831	0.65125	-0.212108	0	0	0.277993	0.0878603	-0.211577	0.317689	-0.415011	0	0	-0.131209	-0.0351696	-0.0520121	1.07617	-0.206021	1.1833	0.959433	1.5708	0	0	0.713036	-0.425128	0.650906	1.18459	1.5708	0	0
4.03	-1.13714	1.4968	2.69053	0.659267	0.662978	1.01904	-0.144464	-0.106848	-0.044865	0.682921	-0.230738	0	0	0.266137	0.0936011	-0.212596	0.312958	-0.412117	0	0	-0.12889	-0.0393975	-0.0553217	1.06974	-0.208272	1.17978	0.957869	1.5708	0	0	0.714136	-0.422183	0.658724	1.1795	1.5708	0	0
4.04	-1.16393	1.49511	2.72211	0.657425	0.670705	1.01989	-0.133656	-0.109635	-0.0345442	0.716084	-0.24867	0	0	0.253723	0.0994587	-0.210751	0.307024	-0.409732	0	0	-0.127173	-0.0437068	-0.0591283	1.06368	-0.21022	1.17571	0.95634	1.5708	0	0	0.715585	-0.419778	0.666298	1.17502	1.5708	0	0
4.05	-1.19835	1.49399	2.76144	0.655647	0.678302	1.02077	-0.122731	-0.111627	-0.0256054	0.750193	-0.263034	0	0	0.240438	0.10463	-0.208106	0.301231	-0.4076	0	0	-0.127233	-0.0475106	-0.0631849	1.05836	-0.21208	1.17098	0.955437	1.5708	0	0	0.71717	-0.417756	0.67285	1.17157	1.5708	0	0
4.06	-1.23747	1.4934	2.80512	0.65394	0.68575	1.02168	-0.110637	-0.11333	-0.0168158	0.786709	-0.278264	0	0	0.226595	0.10903	-0.205263	0.295397	-0.405497	0	0	-0.128417	-0.0507817	-0.0667328	1.05334	-0.214137	1.16573	0.954842	1.5708	0	0	0.719674	-0.415596	0.680012	1.1678	1.5708	0	0
4.07	-1.28074	1.49352	2.85241	0.652308	0.693036	1.02263	-0.0976247	-0.114329	-0.00789829	0.825014	-0.293605	0	0	0.212048	0.112344	-0.202259	0.28933	-0.403428	0	0	-0.130558	-0.0532973	-0.0699078	1.04895	-0.215821	1.16061	0.9537	1.5708	0	0	0.722689	-0.413437	0.687238	1.16376	1.5708	0	0
4.08	-1.32496	1.4942	2.9002	0.650753	0.700135	1.02355	-0.0834882	-0.11432	0.0013992	0.864337	-0.308669	0	0	0.197173	0.114493	-0.199191	0.283144	-0.40136	0	0	-0.133462	-0.0547025	-0.0729009	1.04561	-0.217108	1.15649	0.952218	1.5708	0	0	0.726032	-0.411484	0.69428	1.15977	1.5708	0	0
4.09	-1.36746	1.49501	2.94593	0.649306	0.70702	1.02442	-0.0679378	-0.113066	0.0108528	0.903154	-0.324532	0	0	0.182491	0.115911	-0.196563	0.276764	-0.399384	0	0	-0.136536	-0.0555111	-0.0754301	1.04306	-0.218166	1.15306	0.950391	1.5708	0	0	0.729921	-0.409518	0.701588	1.15542	1.5708	0	0
4.1	-1.40417	1.49587	2.98551	0.647923	0.713688	1.02521	-0.0501586	-0.111396	0.0207952	0.942817	-0.345874	0	0	0.168615	0.117084	-0.195024	0.269895	-0.397224	0	0	-0.139519	-0.0563356	-0.0765359	1.03972	-0.22059	1.14694	0.950036	1.5708	0	0	0.735778	-0.406979	0.711101	1.15015	1.5708	0	0
4.11	-1.44947	1.49699	3.03401	0.646536	0.720219	1.026	-0.0326404	-0.109231	0.0293115	0.982058	-0.352895	0	0	0.154723	0.11785	-0.195479	0.263883	-0.396064	0	0	-0.143976	-0.055771	-0.0796074	1.03889	-0.221338	1.1435	0.949019	1.5708	0	0	0.739223	-0.405425	0.715238	1.14751	1.5708	0	0
4.12	-1.50461	1.49827	3.09245	0.64521	0.726639	1.02681	-0.0155844	-0.106509	0.0363504	1.01965	-0.356016	0	0	0.140204	0.118194	-0.196886	0.257703	-0.39479	0	0	-0.149221	-0.0547682	-0.0820671	1.03776	-0.222617	1.13872	0.948265	1.5708	0	0	0.744616	-0.40347	0.721623	1.14348	1.5708	0	0
4.13	-1.56614	1.49977	-3.12559	0.64389	0.732958	1.02764	0.00139266	-0.103428	0.0417084	1.05515	-0.35243	0	0	0.125675	0.117958	-0.199062	0.252054	-0.393485	0	0	-0.155027	-0.0531536	-0.0845134	1.03656	-0.224235	1.13324	0.947889	1.5708	0	0	0.750814	-0.401191	0.728927	1.13894	1.5708	0	0
4.14	-1.62837	1.50152	-3.0594	0.642592	0.739208	1.02847	0.0187426	-0.100104	0.0450088	1.08815	-0.341968	0	0	0.111503	0.117197	-0.201388	0.246539	-0.392197	0	0	-0.160781	-0.0508654	-0.0872571	1.03554	-0.22583	1.12819	0.947577	1.5708	0	0	0.757085	-0.398924	0.736461	1.13416	1.5708	0	0
4.15	-1.69037	1.50352	-2.99336	0.641339	0.745388	1.02932	0.0363429	-0.0961333	0.0474676	1.11798	-0.325947	0	0	0.0974787	0.115853	-0.202913	0.240536	-0.391005	0	0	-0.166352	-0.0479473	-0.0897641	1.03423	-0.22763	1.12258	0.947569	1.5708	0	0	0.763636	-0.396534	0.744591	1.12909	1.5708	0	0
4.16	-1.7551	1.50591	-2.92458	0.640108	0.75149	1.03023	0.0543262	-0.0915679	0.0493211	1.14444	-0.31073	0	0	0.0835391	0.113702	-0.203759	0.234133	-0.390214	0	0	-0.172095	-0.0439976	-0.0922602	1.03284	-0.229604	1.11642	0.948217	1.5708	0	0	0.769962	-0.394189	0.751973	1.12437	1.5708	0	0
4.17	-1.81639	1.50877	-2.85912	0.638901	0.757494	1.03114	0.0733871	-0.0865015	0.0517642	1.16769	-0.299567	0	0	0.0704291	0.110777	-0.203584	0.227735	-0.389706	0	0	-0.177263	-0.039212	-0.0949052	1.03151	-0.231413	1.11031	0.948778	1.5708	0	0	0.775923	-0.391878	0.75866	1.11976	1.5708	0	0
4.18	-1.88564	1.51198	-2.78585	0.637747	0.763429	1.03207	0.0925381	-0.081212	0.0530749	1.18741	-0.289854	0	0	0.0573849	0.107164	-0.202717	0.22087	-0.389386	0	0	-0.182223	-0.0337094	-0.0972693	1.03031	-0.232964	1.10434	0.948802	1.5708	0	0	0.782413	-0.389451	0.766261	1.11439	1.5708	0	0
4.19	-1.95976	1.51531	-2.70778	0.636662	0.769356	1.03301	0.111711	-0.0756139	0.0537852	1.20348	-0.280297	0	0	0.0445827	0.103212	-0.200948	0.213401	-0.389292	0	0	-0.186382	-0.0277727	-0.0991342	1.02943	-0.234467	1.09971	0.948008	1.5708	0	0	0.789538	-0.38642	0.775309	1.10767	1.5708	0	0
4.2	-2.04606	1.51841	-2.61763	0.635589	0.775284	1.03396	0.130396	-0.0700252	0.0538209	1.2161	-0.27199	0	0	0.03155	0.0990838	-0.198758	0.205425	-0.389361	0	0	-0.19031	-0.0212236	-0.100885	1.02904	-0.235615	1.0964	0.946474	1.5708	0	0	0.796457	-0.382719	0.783867	1.10038	1.5708	0	0
4.21	-2.14812	1.52101	-2.51173	0.634471	0.781181	1.03494	0.148314	-0.0647901	0.0526315	1.22502	-0.263831	0	0	0.0179665	0.0950167	-0.19582	0.196793	-0.389703	0	0	-0.194424	-0.0141848	-0.102438	1.02899	-0.236694	1.09356	0.944528	1.5708	0	0	0.803816	-0.378387	0.792755	1.09208	1.5708	0	0
4.22	-2.25446	1.52268	-2.40147	0.63332	0.787042	1.03591	0.165594	-0.060201	0.0520339	1.23044	-0.252203	0	0	0.00374879	0.0916998	-0.190972	0.186629	-0.39148	0	0	-0.198591	-0.00871127	-0.102079	1.0273	-0.240406	1.08778	0.944897	1.5708	0	0	0.814816	-0.373093	0.807856	1.08115	1.5708	0	0
4.23	-2.34787	1.52463	-2.30469	0.632164	0.79286	1.03671	0.183912	-0.0552238	0.0543974	1.23294	-0.24849	0	0	-0.00812673	0.0881114	-0.18877	0.17898	-0.39079	0	0	-0.201491	-0.00130304	-0.10587	1.03027	-0.238314	1.09044	0.940216	1.5708	0	0	0.818284	-0.371806	0.810728	1.07595	1.5708	0	0
4.24	-2.43459	1.52643	-2.2148	0.631037	0.798613	1.03742	0.202771	-0.0509722	0.0573709	1.23292	-0.241868	0	0	-0.0198651	0.0851697	-0.184754	0.169746	-0.391516	0	0	-0.203576	0.00462112	-0.107174	1.03116	-0.239049	1.08967	0.937736	1.5708	0	0	0.825718	-0.368514	0.820387	1.06772	1.5708	0	0
4.25	-2.51982	1.52783	-2.1264	0.629962	0.804357	1.03808	0.221423	-0.0478105	0.0586899	1.23028	-0.235617	0	0	-0.0314584	0.0824186	-0.180756	0.160454	-0.392469	0	0	-0.205338	0.0100047	-0.108057	1.03171	-0.240357	1.08846	0.935654	1.5708	0	0	0.833739	-0.364627	0.831047	1.05876	1.5708	0	0
4.26	-2.60421	1.52889	-2.03851	0.628906	0.810122	1.03869	0.239014	-0.0449743	0.0574087	1.22312	-0.227902	0	0	-0.0429035	0.0796812	-0.176723	0.15134	-0.393484	0	0	-0.206844	0.0149878	-0.109092	1.03218	-0.241918	1.08723	0.93367	1.5708	0	0	0.841949	-0.360479	0.842277	1.0495	1.5708	0	0
